<?xml version="1.0" standalone="no"?>
<!DOCTYPE svg PUBLIC "-//W3C//DTD SVG 20010904//EN"
 "http://www.w3.org/TR/2001/REC-SVG-20010904/DTD/svg10.dtd">
<svg version="1.0" xmlns="http://www.w3.org/2000/svg"
 width="260.000000pt" height="260.000000pt" viewBox="0 0 260.000000 260.000000"
 preserveAspectRatio="xMidYMid meet">
<metadata>
Created by potrace 1.14, written by Peter Selinger 2001-2017
</metadata>
<g transform="translate(0.000000,260.000000) scale(0.100000,-0.100000)"
fill="#000000" stroke="none">
<path d="M770 2589 c0 -4 -9 -5 -20 -2 -11 3 -27 0 -35 -7 -12 -10 -15 -10
-15 1 0 11 -2 11 -10 -1 -5 -8 -15 -15 -22 -16 -7 0 -21 -2 -31 -2 -12 -1 -15
-6 -11 -14 5 -8 0 -7 -11 2 -10 8 -16 10 -12 4 4 -7 0 -15 -9 -18 -10 -4 -13
-2 -9 7 4 6 0 4 -8 -5 -8 -10 -17 -15 -20 -11 -4 3 -7 1 -7 -5 0 -7 -6 -12
-14 -12 -7 0 -21 -10 -30 -22 -14 -21 -15 -21 -10 -3 5 17 3 16 -8 -3 -8 -12
-17 -19 -21 -16 -4 4 -7 2 -7 -5 0 -7 -4 -9 -10 -6 -5 3 -10 0 -10 -7 0 -7
-13 -22 -29 -32 -16 -11 -27 -26 -24 -33 3 -7 1 -13 -4 -13 -5 0 -20 -14 -32
-31 -13 -18 -17 -28 -10 -24 8 5 5 -1 -5 -13 -11 -12 -15 -22 -10 -22 5 0 3
-4 -4 -9 -7 -4 -14 -18 -15 -29 -1 -12 -5 -22 -10 -22 -5 0 -3 -8 4 -17 12
-14 12 -16 -1 -11 -13 5 -16 -3 -14 -48 1 -30 -2 -54 -8 -54 -5 0 -4 -9 2 -20
10 -19 7 -22 -16 -19 -4 0 -11 -5 -15 -13 -8 -11 -10 -11 -18 0 -4 8 -12 14
-16 14 -4 0 -12 -6 -16 -14 -5 -7 -9 -8 -9 -2 0 5 -11 10 -25 10 -14 0 -25 -3
-25 -8 0 -4 -7 -5 -15 -2 -8 4 -15 1 -15 -5 0 -6 -3 -10 -7 -10 -21 3 -32 -3
-38 -21 -3 -11 -11 -19 -18 -17 -6 1 -13 -8 -15 -21 -2 -13 -10 -26 -19 -29
-12 -5 -12 -7 -1 -14 7 -5 8 -9 3 -9 -6 0 -10 -12 -9 -27 1 -16 3 -28 4 -28 1
0 3 -10 4 -22 2 -13 0 -23 -4 -23 -3 0 -6 -9 -6 -20 0 -11 5 -20 11 -20 6 0 7
-3 0 -8 -5 -4 -10 -29 -10 -57 0 -27 5 -53 10 -57 7 -5 7 -8 0 -8 -5 0 -10
-25 -10 -55 0 -30 5 -55 10 -55 7 0 7 -3 0 -8 -5 -4 -10 -29 -10 -57 0 -27 5
-53 10 -57 7 -5 7 -8 0 -8 -5 0 -10 -25 -10 -55 0 -30 5 -55 10 -55 7 0 7 -3
0 -8 -5 -4 -10 -29 -10 -57 0 -27 5 -53 10 -57 7 -5 7 -8 0 -8 -5 0 -10 -25
-10 -55 0 -30 5 -55 10 -55 7 0 7 -3 0 -8 -5 -4 -10 -29 -10 -57 0 -27 5 -53
10 -57 7 -5 7 -8 0 -8 -5 0 -10 -25 -10 -55 0 -30 5 -55 10 -55 7 0 7 -3 0 -8
-5 -4 -10 -29 -10 -57 0 -27 5 -53 10 -57 7 -5 7 -8 0 -8 -5 0 -10 -25 -10
-55 0 -30 5 -55 10 -55 7 0 7 -3 0 -8 -5 -4 -10 -29 -10 -57 0 -27 5 -53 10
-57 7 -5 7 -8 0 -8 -11 0 -12 -61 -1 -78 4 -7 2 -12 -5 -12 -8 0 -9 -4 0 -13
8 -10 7 -17 -2 -26 -9 -10 -8 -11 5 -6 14 6 18 2 18 -14 0 -12 5 -21 10 -21 6
0 15 -10 20 -22 5 -13 9 -17 9 -10 1 7 9 4 21 -8 12 -12 25 -18 30 -15 5 3 11
1 15 -5 4 -6 12 -7 24 0 12 6 22 5 29 -2 9 -9 12 -8 12 3 0 11 2 12 9 0 6 -10
10 -10 16 -1 5 8 13 6 28 -7 12 -10 17 -12 12 -4 -6 11 -4 13 8 8 10 -3 17 -2
17 4 0 6 5 7 12 3 17 -11 69 -13 62 -3 -3 5 1 7 8 5 34 -11 78 -15 74 -7 -4 5
9 5 29 1 24 -5 35 -4 35 3 0 8 3 8 11 0 7 -7 20 -8 34 -3 14 5 27 4 34 -3 8
-8 11 -7 11 3 0 10 4 8 13 -5 11 -14 16 -15 22 -5 6 9 4 11 -5 5 -9 -6 -11 -4
-5 4 5 9 11 9 17 3 7 -7 19 -7 33 -2 14 5 27 4 34 -3 8 -8 11 -7 11 3 0 10 4
9 13 -4 12 -17 15 -17 29 -3 9 9 18 13 22 10 9 -10 66 -11 60 -2 -3 5 1 7 8 5
31 -10 79 -15 74 -8 -5 9 46 8 61 -1 6 -4 14 -1 16 5 4 10 6 9 6 -1 1 -11 4
-11 18 0 14 12 15 12 9 0 -7 -10 -3 -12 15 -6 13 4 26 7 29 7 24 0 30 -4 24
-14 -6 -9 -3 -9 9 0 9 8 21 11 27 7 5 -3 10 -1 10 6 0 10 3 10 11 2 6 -6 18
-9 27 -5 11 4 14 1 9 -11 -3 -9 -3 -17 2 -17 5 0 9 -12 10 -28 1 -49 4 -62 14
-62 6 0 8 -3 4 -6 -6 -7 16 -34 28 -34 4 0 13 -6 21 -14 7 -8 25 -13 39 -12
14 2 25 -1 25 -6 0 -5 6 -6 12 -1 18 11 32 10 40 -1 4 -6 13 -5 22 3 12 11 16
11 16 1 0 -10 3 -10 15 0 12 10 15 10 15 0 0 -10 3 -10 15 0 12 10 15 10 15
-1 0 -10 3 -10 12 -1 14 14 32 16 24 4 -6 -10 24 -9 41 1 6 4 15 2 19 -4 4 -8
9 -7 15 2 7 12 9 12 9 0 0 -11 3 -11 16 0 13 10 17 10 25 -2 6 -9 12 -10 17
-4 9 12 42 16 42 5 0 -9 26 -7 36 3 4 3 15 2 25 -3 12 -7 19 -6 22 3 4 9 8 8
16 -3 10 -13 11 -13 11 0 0 13 1 13 11 0 8 -11 12 -12 16 -3 3 9 10 10 22 3
10 -5 21 -6 25 -3 10 10 36 12 36 3 0 -11 33 -7 43 5 4 6 10 5 16 -4 5 -8 14
-10 22 -5 20 12 39 14 39 3 0 -5 12 -4 27 2 19 7 28 7 34 -2 6 -10 11 -10 23
0 12 11 16 11 16 1 0 -10 3 -10 15 0 11 9 15 9 15 1 0 -7 5 -9 13 -4 17 11 31
10 39 -1 4 -6 13 -5 22 3 12 11 16 11 16 1 0 -10 3 -10 15 0 12 10 15 10 15 0
0 -10 3 -10 15 0 12 10 15 10 15 0 0 -10 4 -10 16 1 9 8 18 9 22 3 8 -11 22
-12 39 -1 6 4 14 3 18 -3 3 -5 11 -10 16 -10 6 0 8 4 5 8 -3 5 8 8 24 7 17 -1
30 2 30 7 0 5 5 6 10 3 6 -3 10 -1 10 5 0 6 5 8 10 5 6 -3 10 -2 10 3 0 5 9
19 20 32 11 12 17 26 15 31 -3 4 -1 10 5 14 6 4 8 11 4 16 -3 5 -1 16 6 24 8
10 8 15 -1 21 -8 5 -9 3 -4 -6 5 -9 4 -11 -3 -6 -8 5 -9 14 -4 24 5 9 8 49 7
87 -2 39 2 75 7 82 6 7 5 14 -3 19 -8 5 -9 3 -4 -6 5 -9 4 -11 -3 -6 -8 5 -9
14 -4 24 5 9 8 49 7 87 -2 39 2 75 7 82 6 7 5 14 -3 19 -8 5 -9 3 -4 -6 5 -9
4 -11 -3 -6 -8 5 -9 14 -4 24 5 9 8 49 7 87 -2 39 2 75 7 82 6 7 5 14 -3 19
-8 5 -9 3 -4 -6 5 -9 4 -11 -3 -6 -8 5 -9 14 -4 24 5 9 8 49 7 87 -2 39 2 75
7 82 6 7 5 14 -3 19 -8 5 -9 3 -4 -6 5 -9 4 -11 -3 -6 -8 5 -9 14 -4 24 5 9 8
49 7 87 -2 39 2 75 7 82 6 7 5 14 -3 19 -8 5 -9 3 -4 -6 5 -9 4 -11 -3 -6 -8
5 -9 14 -4 24 5 9 8 49 7 87 -2 39 2 76 8 83 7 9 6 11 -6 6 -12 -4 -14 -1 -10
14 2 10 -3 26 -11 35 -9 8 -16 19 -16 24 -1 15 -51 45 -66 39 -7 -3 -14 -1
-14 4 0 6 -5 10 -11 10 -5 0 -7 -5 -3 -11 4 -8 0 -8 -15 0 -16 9 -21 9 -21 -1
0 -8 -3 -9 -8 -3 -4 6 -16 10 -27 10 -11 0 -23 -4 -27 -10 -5 -7 -8 -7 -8 0 0
13 -63 13 -72 0 -5 -7 -8 -7 -8 0 0 10 -88 11 -98 1 -3 -3 -11 -1 -19 5 -10 9
-13 8 -13 -2 0 -11 -2 -11 -10 1 -9 13 -11 13 -20 0 -8 -12 -10 -12 -10 -1 0
10 -3 11 -13 2 -8 -6 -17 -8 -20 -5 -10 10 -87 9 -87 -1 0 -5 -5 -3 -10 5 -9
13 -11 13 -20 0 -5 -8 -10 -10 -10 -5 0 6 -13 10 -30 10 -16 0 -30 -4 -30 -10
0 -7 -3 -7 -8 0 -4 6 -20 10 -37 10 -16 0 -33 -4 -37 -10 -5 -7 -8 -7 -8 0 0
6 -19 10 -42 10 -24 0 -46 -4 -50 -10 -5 -6 -8 -5 -8 3 0 6 -5 12 -11 12 -5 0
-7 -6 -3 -12 6 -9 3 -9 -9 0 -9 8 -22 11 -29 7 -7 -4 -4 1 6 9 15 12 16 16 5
16 -11 0 -12 2 0 9 9 6 10 11 2 15 -7 5 -8 13 -1 25 6 12 5 22 -2 29 -9 9 -9
12 1 12 7 0 9 5 5 11 -11 18 -10 89 1 89 6 0 1 7 -9 15 -12 9 -15 15 -7 15 10
0 12 10 8 35 -4 23 -2 33 5 29 6 -4 6 2 -1 15 -8 14 -8 21 -1 21 7 0 8 7 2 18
-4 9 -7 31 -6 49 1 19 -5 39 -17 52 -10 11 -19 25 -19 30 0 5 -9 13 -20 16
-11 3 -20 11 -20 16 0 5 -9 9 -20 9 -11 0 -20 5 -20 11 0 8 -4 8 -14 0 -10 -9
-16 -9 -21 -1 -5 8 -10 8 -20 0 -10 -8 -15 -8 -20 1 -6 8 -10 7 -16 -2 -7 -12
-9 -12 -9 0 0 7 -6 11 -15 8 -20 -8 -28 8 -29 62 -1 25 -5 52 -10 60 -6 10 -5
12 2 7 7 -4 12 -2 12 3 0 6 -3 11 -8 11 -4 0 -8 14 -9 32 0 17 -8 37 -17 44
-13 9 -14 13 -4 17 8 4 7 6 -4 6 -12 1 -18 9 -18 26 0 14 -4 25 -10 25 -5 0
-10 5 -10 10 0 6 -10 21 -22 34 -13 13 -36 37 -51 55 -15 17 -32 29 -37 26 -6
-4 -10 1 -10 10 0 9 -4 14 -9 11 -5 -3 -11 1 -15 9 -3 8 -14 15 -25 15 -10 0
-22 7 -25 15 -3 9 -11 15 -18 13 -7 -1 -23 3 -35 10 -13 7 -23 9 -23 5 0 -4
-4 -3 -8 2 -15 21 -51 35 -58 23 -5 -7 -3 -8 6 -3 9 5 11 4 6 -4 -6 -9 -11 -9
-22 0 -8 6 -14 8 -14 3 0 -5 -4 -3 -8 3 -7 11 -79 20 -107 13 -5 -1 -12 -1
-15 0 -15 6 -50 6 -50 -1z m-7 -96 c9 0 17 5 17 11 0 6 4 5 9 -3 6 -9 14 -10
27 -3 13 7 26 7 37 1 12 -7 17 -6 17 2 0 8 4 8 15 -1 11 -9 15 -10 15 -1 0 8
6 7 16 -3 17 -18 28 -21 19 -6 -3 6 -1 10 4 10 6 0 11 -5 11 -11 0 -8 5 -7 15
1 13 11 14 10 9 -6 -4 -10 -4 -16 1 -12 4 4 15 2 23 -5 13 -9 14 -9 8 0 -5 9
-2 11 8 7 9 -3 16 -9 16 -13 0 -4 9 -7 20 -8 11 -1 27 -9 36 -17 8 -9 20 -16
25 -16 5 0 29 -20 52 -45 24 -25 49 -45 55 -45 7 0 11 -3 11 -7 -3 -21 2 -33
13 -27 6 4 8 3 4 -4 -3 -6 -2 -13 4 -17 6 -4 8 -11 5 -16 -4 -5 -1 -9 4 -9 6
0 11 -9 11 -20 0 -11 5 -20 11 -20 6 0 9 -9 6 -20 -3 -11 -1 -20 4 -20 5 0 9
-5 9 -11 0 -5 -5 -7 -11 -3 -8 5 -8 1 0 -13 5 -11 8 -32 5 -47 -3 -19 -1 -25
6 -21 7 4 7 -1 -1 -13 -7 -11 -21 -19 -31 -17 -10 2 -18 -2 -18 -8 0 -8 -3 -8
-9 1 -11 17 -22 17 -32 0 -6 -10 -11 -10 -20 -1 -9 9 -16 10 -26 2 -7 -7 -13
-7 -13 -2 0 5 -7 10 -15 10 -8 0 -15 -5 -15 -11 0 -6 -4 -5 -9 2 -11 17 -21
17 -32 0 -5 -7 -9 -8 -9 -2 0 14 -60 14 -60 0 0 -6 -4 -5 -9 2 -11 17 -22 17
-32 0 -6 -10 -11 -10 -20 -1 -9 9 -16 10 -26 2 -7 -7 -13 -7 -13 -2 0 5 -7 10
-15 10 -8 0 -15 -5 -15 -11 0 -6 -4 -5 -9 2 -4 8 -12 14 -16 14 -4 0 -12 -6
-16 -14 -5 -7 -9 -8 -9 -2 0 14 -60 14 -60 0 0 -6 -4 -5 -9 2 -10 17 -22 17
-32 1 -6 -10 -11 -10 -21 -1 -11 9 -17 9 -26 0 -7 -7 -12 -8 -12 -2 0 6 -7 11
-15 11 -8 0 -15 -5 -15 -11 0 -6 -4 -5 -9 2 -4 8 -12 14 -16 14 -4 0 -12 -6
-16 -14 -5 -7 -9 -8 -9 -2 0 6 -13 10 -30 10 -16 0 -30 -4 -30 -10 0 -6 -4 -5
-9 2 -4 8 -12 14 -16 14 -4 0 -12 -6 -16 -14 -8 -11 -10 -11 -18 0 -4 8 -12
14 -16 14 -4 0 -12 -6 -16 -14 -5 -8 -9 -8 -9 -2 0 6 -8 11 -17 11 -10 0 -23
1 -28 2 -14 1 -17 41 -4 41 6 0 7 6 2 13 -11 18 -15 49 -5 43 5 -3 8 8 7 24
-1 17 2 30 6 30 5 0 6 7 3 15 -4 8 -2 15 4 15 6 0 13 13 17 29 3 16 13 32 21
35 8 3 14 11 14 18 0 16 54 68 70 68 6 0 8 5 5 10 -3 6 -1 10 5 10 6 0 8 5 4
12 -5 7 -3 8 6 3 8 -5 18 -1 27 10 9 14 13 15 13 4 1 -10 3 -9 11 4 6 9 14 15
20 12 5 -4 9 -1 9 6 0 6 8 9 20 6 11 -3 18 0 17 6 -1 6 3 11 8 12 6 0 16 4 24
9 11 7 12 6 6 -5 -7 -11 -6 -12 7 -2 8 7 18 10 21 6 4 -3 7 2 7 13 0 11 3 15
8 8 4 -6 15 -11 25 -11z m418 -120 c13 -16 12 -17 -3 -4 -10 7 -18 15 -18 17
0 8 8 3 21 -13z"/>
</g>
</svg>
